<svg width="859" height="752" viewBox="0 0 859 752" fill="none" xmlns="http://www.w3.org/2000/svg">
<path fill-rule="evenodd" clip-rule="evenodd" d="M456.009 34.7325C549.002 30.3575 647.649 -19.213 729.382 22.7517C811.43 64.8779 836.407 163.228 867.69 246.104C896.706 322.977 922.671 404.009 903.305 483.525C884.627 560.219 831.444 627.839 763.539 673.753C702.689 714.897 623.125 709.442 549.536 722.726C483.853 734.583 419.599 762.89 354.736 747.552C288.775 731.954 245.32 678.028 192.086 638.198C125.491 588.373 22.496 562.217 2.90108 484.312C-16.4987 407.182 66.5382 342.75 99.4205 269.778C133.479 194.195 128.198 94.776 199.657 47.6735C271.194 0.520184 368.776 38.8365 456.009 34.7325Z" fill="#EFDECF" fill-opacity="0.88"/>
<path fill-rule="evenodd" clip-rule="evenodd" d="M607.339 226.142C684.697 223.227 766.758 190.203 834.75 218.16C903.002 246.226 923.781 311.748 949.804 366.962C973.941 418.176 995.54 472.162 979.431 525.137C963.893 576.231 919.652 621.282 863.164 651.87C812.544 679.281 746.358 675.647 685.141 684.497C630.502 692.397 577.051 711.255 523.093 701.036C468.223 690.645 432.074 654.718 387.79 628.183C332.392 594.988 246.714 577.563 230.413 525.661C214.275 474.275 283.351 431.35 310.705 382.734C339.037 332.379 334.644 266.144 394.089 234.764C453.598 203.349 534.773 228.876 607.339 226.142Z" fill="#EBD3BF"/>
<path fill-rule="evenodd" clip-rule="evenodd" d="M502.009 29.7325C595.002 25.3575 693.649 -24.213 775.382 17.7517C857.43 59.8779 882.407 158.228 913.69 241.104C942.706 317.977 968.671 399.009 949.305 478.525C930.627 555.219 877.444 622.839 809.539 668.753C748.689 709.897 669.125 704.442 595.536 717.726C529.853 729.583 465.599 757.89 400.736 742.552C334.775 726.954 291.32 673.028 238.086 633.198C171.491 583.373 68.496 557.217 48.9011 479.312C29.5013 402.182 112.538 337.75 145.421 264.778C179.479 189.195 174.198 89.776 245.657 42.6735C317.194 -4.47982 414.776 33.8365 502.009 29.7325Z" stroke="#CAA180"/>
</svg>
