<svg width="786" height="931" viewBox="0 0 786 931" fill="none" xmlns="http://www.w3.org/2000/svg">
<path fill-rule="evenodd" clip-rule="evenodd" d="M589.428 214.262C645.649 288.465 742.335 341.76 753.975 432.896C765.66 524.383 698.697 600.623 648.059 673.307C601.09 740.725 548.964 807.981 472.442 837.001C398.636 864.991 312.789 859.397 236.511 829.382C168.158 802.486 127.641 733.794 75.0523 680.631C28.1134 633.18 -31.5804 596.215 -55.6311 534.053C-80.0885 470.839 -60.2092 404.498 -57.4862 338.069C-54.0797 254.967 -90.7852 155.244 -37.6338 95.0095C14.9882 35.375 115.096 67.3899 193.87 53.2176C275.462 38.5381 354.451 -22.0657 433.72 10.2072C513.074 42.5149 536.69 144.655 589.428 214.262Z" fill="#EFDECF" fill-opacity="0.88"/>
<path fill-rule="evenodd" clip-rule="evenodd" d="M517.219 447.338C563.389 509.475 637.049 558.455 652.464 630.335C667.938 702.492 625.667 756.696 594.863 809.392C566.29 858.271 533.996 906.625 481.201 923.314C430.279 939.41 368.102 928.419 310.92 899.148C259.679 872.917 225.229 816.286 183.297 770.817C145.869 730.232 100.078 696.829 77.9762 646.556C55.5004 595.433 64.6717 545.299 61.4968 493.772C57.525 429.312 23.4184 348.806 56.9925 306.001C90.2322 263.621 164.708 296.292 220.271 291.341C277.821 286.214 329.95 245.117 389.458 276.378C449.03 307.673 473.908 389.049 517.219 447.338Z" fill="#EBD3BF"/>
<path fill-rule="evenodd" clip-rule="evenodd" d="M619.577 249.363C675.797 323.566 772.483 376.861 784.124 467.997C795.809 559.484 728.845 635.724 678.208 708.408C631.239 775.826 579.112 843.082 502.59 872.102C428.785 900.092 342.938 894.498 266.66 864.483C198.307 837.587 157.79 768.895 105.201 715.732C58.2619 668.281 -1.43185 631.316 -25.4826 569.154C-49.94 505.94 -30.0608 439.599 -27.3377 373.17C-23.9312 290.068 -60.6367 190.345 -7.48532 130.111C45.1367 70.4761 145.245 102.491 224.018 88.3186C305.611 73.6392 384.6 13.0353 463.869 45.3083C543.223 77.616 566.838 179.756 619.577 249.363Z" stroke="#CAA180"/>
</svg>
